<mxfile host="65bd71144e">
    <diagram id="fTFtmw8irvLtK1-M9rfn" name="第 1 页">
        <mxGraphModel dx="2045" dy="1340" grid="1" gridSize="10" guides="1" tooltips="1" connect="1" arrows="1" fold="1" page="1" pageScale="1" pageWidth="827" pageHeight="1169" math="0" shadow="0">
            <root>
                <mxCell id="0"/>
                <mxCell id="1" parent="0"/>
                <mxCell id="62" value="" style="rounded=1;whiteSpace=wrap;html=1;fillColor=default;strokeWidth=2;" parent="1" vertex="1">
                    <mxGeometry x="200" y="170" width="280" height="100" as="geometry"/>
                </mxCell>
                <mxCell id="63" value="" style="rounded=1;whiteSpace=wrap;html=1;fillColor=default;strokeColor=#878787;dashed=1;dashPattern=8 8;" parent="1" vertex="1">
                    <mxGeometry x="203.75" y="1537" width="260" height="105" as="geometry"/>
                </mxCell>
                <mxCell id="64" value="" style="rounded=1;whiteSpace=wrap;html=1;fillColor=default;strokeWidth=2;" parent="1" vertex="1">
                    <mxGeometry x="323.75" y="1537" width="280" height="110" as="geometry"/>
                </mxCell>
                <mxCell id="65" value="0" style="rounded=0;whiteSpace=wrap;html=1;fillColor=#d5e8d4;strokeColor=#82b366;strokeWidth=2;" parent="1" vertex="1">
                    <mxGeometry x="40" y="210" width="40" height="40" as="geometry"/>
                </mxCell>
                <mxCell id="66" value="1" style="rounded=0;whiteSpace=wrap;html=1;fillColor=#d5e8d4;strokeColor=#82b366;strokeWidth=2;" parent="1" vertex="1">
                    <mxGeometry x="80" y="210" width="40" height="40" as="geometry"/>
                </mxCell>
                <mxCell id="67" value="2" style="rounded=0;whiteSpace=wrap;html=1;fillColor=#d5e8d4;strokeColor=#82b366;strokeWidth=2;" parent="1" vertex="1">
                    <mxGeometry x="120" y="210" width="40" height="40" as="geometry"/>
                </mxCell>
                <mxCell id="68" value="3" style="rounded=0;whiteSpace=wrap;html=1;fillColor=#d5e8d4;strokeColor=#82b366;strokeWidth=2;" parent="1" vertex="1">
                    <mxGeometry x="160" y="210" width="40" height="40" as="geometry"/>
                </mxCell>
                <mxCell id="69" value="10" style="rounded=0;whiteSpace=wrap;html=1;strokeWidth=2;" parent="1" vertex="1">
                    <mxGeometry x="480" y="210" width="40" height="40" as="geometry"/>
                </mxCell>
                <mxCell id="70" value="11" style="rounded=0;whiteSpace=wrap;html=1;strokeWidth=2;" parent="1" vertex="1">
                    <mxGeometry x="520" y="210" width="40" height="40" as="geometry"/>
                </mxCell>
                <mxCell id="71" value="12" style="rounded=0;whiteSpace=wrap;html=1;strokeWidth=2;" parent="1" vertex="1">
                    <mxGeometry x="560" y="210" width="40" height="40" as="geometry"/>
                </mxCell>
                <mxCell id="72" value="13" style="rounded=0;whiteSpace=wrap;html=1;strokeWidth=2;" parent="1" vertex="1">
                    <mxGeometry x="600" y="210" width="40" height="40" as="geometry"/>
                </mxCell>
                <mxCell id="73" value="..." style="rounded=0;whiteSpace=wrap;html=1;strokeWidth=2;" parent="1" vertex="1">
                    <mxGeometry x="640" y="210" width="40" height="40" as="geometry"/>
                </mxCell>
                <mxCell id="74" value="99" style="rounded=0;whiteSpace=wrap;html=1;strokeWidth=2;" parent="1" vertex="1">
                    <mxGeometry x="680" y="210" width="40" height="40" as="geometry"/>
                </mxCell>
                <mxCell id="75" value="滑动窗口" style="text;html=1;align=center;verticalAlign=middle;whiteSpace=wrap;rounded=0;fontStyle=1" parent="1" vertex="1">
                    <mxGeometry x="244.16" y="170" width="190" height="30" as="geometry"/>
                </mxCell>
                <mxCell id="76" value="已完成" style="rounded=0;whiteSpace=wrap;html=1;fillColor=#d5e8d4;strokeColor=#82b366;" parent="1" vertex="1">
                    <mxGeometry x="40" y="70" width="80" height="40" as="geometry"/>
                </mxCell>
                <mxCell id="77" value="多线程处理中" style="rounded=0;whiteSpace=wrap;html=1;fillColor=#fff2cc;strokeColor=#d6b656;" parent="1" vertex="1">
                    <mxGeometry x="160" y="70" width="80" height="40" as="geometry"/>
                </mxCell>
                <mxCell id="78" value="待处理" style="rounded=0;whiteSpace=wrap;html=1;" parent="1" vertex="1">
                    <mxGeometry x="280" y="70" width="80" height="40" as="geometry"/>
                </mxCell>
                <mxCell id="79" value="" style="shape=curlyBracket;whiteSpace=wrap;html=1;rounded=1;labelPosition=left;verticalLabelPosition=middle;align=right;verticalAlign=middle;rotation=-90;" parent="1" vertex="1">
                    <mxGeometry x="307.82" y="182.2" width="20" height="220.62" as="geometry"/>
                </mxCell>
                <mxCell id="80" value="&lt;b&gt;4个线程&lt;/b&gt;同时处理数据" style="text;html=1;align=center;verticalAlign=middle;resizable=0;points=[];autosize=1;strokeColor=none;fillColor=none;fontSize=10;" parent="1" vertex="1">
                    <mxGeometry x="260" y="300" width="120" height="30" as="geometry"/>
                </mxCell>
                <mxCell id="83" value="0" style="rounded=0;whiteSpace=wrap;html=1;fillColor=#d5e8d4;strokeColor=#82b366;strokeWidth=2;" parent="1" vertex="1">
                    <mxGeometry x="43.75" y="1582" width="40" height="40" as="geometry"/>
                </mxCell>
                <mxCell id="84" value="1" style="rounded=0;whiteSpace=wrap;html=1;fillColor=#d5e8d4;strokeColor=#82b366;strokeWidth=2;" parent="1" vertex="1">
                    <mxGeometry x="83.75" y="1582" width="40" height="40" as="geometry"/>
                </mxCell>
                <mxCell id="85" value="2" style="rounded=0;whiteSpace=wrap;html=1;fillColor=#d5e8d4;strokeColor=#82b366;strokeWidth=2;" parent="1" vertex="1">
                    <mxGeometry x="123.75" y="1582" width="40" height="40" as="geometry"/>
                </mxCell>
                <mxCell id="86" value="3" style="rounded=0;whiteSpace=wrap;html=1;fillColor=#d5e8d4;strokeColor=#82b366;strokeWidth=2;" parent="1" vertex="1">
                    <mxGeometry x="163.75" y="1582" width="40" height="40" as="geometry"/>
                </mxCell>
                <mxCell id="87" value="4" style="rounded=0;whiteSpace=wrap;html=1;fillColor=#d5e8d4;strokeColor=#82b366;strokeWidth=2;" parent="1" vertex="1">
                    <mxGeometry x="203.75" y="1582" width="40" height="40" as="geometry"/>
                </mxCell>
                <mxCell id="88" value="5" style="rounded=0;whiteSpace=wrap;html=1;fillColor=#d5e8d4;strokeColor=#82b366;strokeWidth=2;" parent="1" vertex="1">
                    <mxGeometry x="243.75" y="1582" width="40" height="40" as="geometry"/>
                </mxCell>
                <mxCell id="89" value="6" style="rounded=0;whiteSpace=wrap;html=1;fillColor=#d5e8d4;strokeColor=#82b366;strokeWidth=2;" parent="1" vertex="1">
                    <mxGeometry x="283.75" y="1582" width="40" height="40" as="geometry"/>
                </mxCell>
                <mxCell id="90" value="当滑动窗口内的一条数据处理完毕后. 这个线程会立即处理下一条数据" style="text;html=1;align=center;verticalAlign=middle;resizable=0;points=[];autosize=1;strokeColor=none;fillColor=none;fontStyle=1" parent="1" vertex="1">
                    <mxGeometry x="110" y="550" width="390" height="30" as="geometry"/>
                </mxCell>
                <mxCell id="91" value="" style="shape=singleArrow;direction=south;whiteSpace=wrap;html=1;" parent="1" vertex="1">
                    <mxGeometry x="251.66" y="350" width="120" height="162" as="geometry"/>
                </mxCell>
                <mxCell id="92" value="" style="curved=1;endArrow=classic;html=1;strokeColor=#5C5C5C;dashed=1;dashPattern=8 8;" parent="1" edge="1">
                    <mxGeometry width="50" height="50" relative="1" as="geometry">
                        <mxPoint x="273.75" y="1532" as="sourcePoint"/>
                        <mxPoint x="393.75" y="1532" as="targetPoint"/>
                        <Array as="points">
                            <mxPoint x="293.75" y="1512"/>
                            <mxPoint x="373.75" y="1512"/>
                        </Array>
                    </mxGeometry>
                </mxCell>
                <mxCell id="93" value="滑动窗口" style="text;html=1;align=center;verticalAlign=middle;whiteSpace=wrap;rounded=0;fontSize=10;" parent="1" vertex="1">
                    <mxGeometry x="370.42" y="1537" width="190" height="24.166666666666664" as="geometry"/>
                </mxCell>
                <mxCell id="95" value="空出了窗格可以开始处理新的数据, 空闲的线程立即开始处理下一个数据" style="text;html=1;align=center;verticalAlign=middle;resizable=0;points=[];autosize=1;strokeColor=none;fillColor=none;fontSize=10;" parent="1" vertex="1">
                    <mxGeometry x="305.42" y="1682" width="340" height="30" as="geometry"/>
                </mxCell>
                <mxCell id="96" value="13" style="rounded=0;whiteSpace=wrap;html=1;strokeWidth=2;" parent="1" vertex="1">
                    <mxGeometry x="603.75" y="1582" width="40" height="40" as="geometry"/>
                </mxCell>
                <mxCell id="97" value="..." style="rounded=0;whiteSpace=wrap;html=1;strokeWidth=2;" parent="1" vertex="1">
                    <mxGeometry x="643.75" y="1582" width="40" height="40" as="geometry"/>
                </mxCell>
                <mxCell id="98" value="99" style="rounded=0;whiteSpace=wrap;html=1;strokeWidth=2;" parent="1" vertex="1">
                    <mxGeometry x="683.75" y="1582" width="40" height="40" as="geometry"/>
                </mxCell>
                <mxCell id="99" value="" style="group;strokeColor=default;container=0;" parent="1" vertex="1" connectable="0">
                    <mxGeometry x="323.75" y="1576" width="280" height="50" as="geometry"/>
                </mxCell>
                <mxCell id="100" value="4" style="rounded=0;whiteSpace=wrap;html=1;fillColor=#fff2cc;strokeColor=default;strokeWidth=3;" parent="1" vertex="1">
                    <mxGeometry x="200" y="205" width="46.66666666666666" height="50" as="geometry"/>
                </mxCell>
                <mxCell id="101" value="5" style="rounded=0;whiteSpace=wrap;html=1;fillColor=#fff2cc;strokeColor=default;strokeWidth=3;" parent="1" vertex="1">
                    <mxGeometry x="246.66666666666666" y="205" width="46.66666666666666" height="50" as="geometry"/>
                </mxCell>
                <mxCell id="102" value="6" style="rounded=0;whiteSpace=wrap;html=1;fillColor=#fff2cc;strokeColor=default;strokeWidth=3;" parent="1" vertex="1">
                    <mxGeometry x="293.3333333333333" y="205" width="46.66666666666666" height="50" as="geometry"/>
                </mxCell>
                <mxCell id="103" value="7" style="rounded=0;whiteSpace=wrap;html=1;strokeWidth=3;strokeColor=default;fillColor=#fff2cc;" parent="1" vertex="1">
                    <mxGeometry x="340" y="205" width="46.66666666666666" height="50" as="geometry"/>
                </mxCell>
                <mxCell id="104" value="8" style="rounded=0;whiteSpace=wrap;html=1;strokeWidth=3;strokeColor=default;fillColor=#d5e8d4;" parent="1" vertex="1">
                    <mxGeometry x="386.66666666666663" y="205" width="46.66666666666666" height="50" as="geometry"/>
                </mxCell>
                <mxCell id="105" value="9" style="rounded=0;whiteSpace=wrap;html=1;strokeWidth=3;" parent="1" vertex="1">
                    <mxGeometry x="433.3333333333333" y="205" width="46.66666666666666" height="50" as="geometry"/>
                </mxCell>
                <mxCell id="106" value="7" style="rounded=0;whiteSpace=wrap;html=1;fillColor=#fff2cc;strokeColor=default;strokeWidth=3;" parent="1" vertex="1">
                    <mxGeometry x="323.75" y="1576" width="46.666666666666664" height="50" as="geometry"/>
                </mxCell>
                <mxCell id="107" value="8" style="rounded=0;whiteSpace=wrap;html=1;fillColor=#d5e8d4;strokeColor=default;strokeWidth=3;" parent="1" vertex="1">
                    <mxGeometry x="370.4166666666667" y="1576" width="46.666666666666664" height="50" as="geometry"/>
                </mxCell>
                <mxCell id="108" value="9" style="rounded=0;whiteSpace=wrap;html=1;fillColor=#fff2cc;strokeColor=default;strokeWidth=3;" parent="1" vertex="1">
                    <mxGeometry x="417.0833333333333" y="1576" width="46.666666666666664" height="50" as="geometry"/>
                </mxCell>
                <mxCell id="109" value="10" style="rounded=0;whiteSpace=wrap;html=1;strokeWidth=3;strokeColor=default;fillColor=#fff2cc;" parent="1" vertex="1">
                    <mxGeometry x="463.75" y="1576" width="46.666666666666664" height="50" as="geometry"/>
                </mxCell>
                <mxCell id="172" style="edgeStyle=none;html=1;exitX=0.523;exitY=-0.002;exitDx=0;exitDy=0;exitPerimeter=0;entryX=0.5;entryY=1;entryDx=0;entryDy=0;dashed=1;dashPattern=8 8;" parent="1" source="95" target="110" edge="1">
                    <mxGeometry relative="1" as="geometry">
                        <mxPoint x="683.7499999999998" y="1670" as="targetPoint"/>
                    </mxGeometry>
                </mxCell>
                <mxCell id="110" value="11" style="rounded=0;whiteSpace=wrap;html=1;strokeWidth=3;strokeColor=default;fillColor=#fff2cc;" parent="1" vertex="1">
                    <mxGeometry x="510.41666666666663" y="1576" width="46.666666666666664" height="50" as="geometry"/>
                </mxCell>
                <mxCell id="111" value="12" style="rounded=0;whiteSpace=wrap;html=1;strokeWidth=3;strokeColor=default;" parent="1" vertex="1">
                    <mxGeometry x="557.0833333333333" y="1576" width="46.666666666666664" height="50" as="geometry"/>
                </mxCell>
                <mxCell id="112" value="" style="rounded=1;whiteSpace=wrap;html=1;fillColor=default;strokeWidth=2;" parent="1" vertex="1">
                    <mxGeometry x="200" y="598" width="280" height="100" as="geometry"/>
                </mxCell>
                <mxCell id="113" value="0" style="rounded=0;whiteSpace=wrap;html=1;fillColor=#d5e8d4;strokeColor=#82b366;strokeWidth=2;" parent="1" vertex="1">
                    <mxGeometry x="40" y="638" width="40" height="40" as="geometry"/>
                </mxCell>
                <mxCell id="114" value="1" style="rounded=0;whiteSpace=wrap;html=1;fillColor=#d5e8d4;strokeColor=#82b366;strokeWidth=2;" parent="1" vertex="1">
                    <mxGeometry x="80" y="638" width="40" height="40" as="geometry"/>
                </mxCell>
                <mxCell id="115" value="2" style="rounded=0;whiteSpace=wrap;html=1;fillColor=#d5e8d4;strokeColor=#82b366;strokeWidth=2;" parent="1" vertex="1">
                    <mxGeometry x="120" y="638" width="40" height="40" as="geometry"/>
                </mxCell>
                <mxCell id="116" value="3" style="rounded=0;whiteSpace=wrap;html=1;fillColor=#d5e8d4;strokeColor=#82b366;strokeWidth=2;" parent="1" vertex="1">
                    <mxGeometry x="160" y="638" width="40" height="40" as="geometry"/>
                </mxCell>
                <mxCell id="117" value="10" style="rounded=0;whiteSpace=wrap;html=1;strokeWidth=2;" parent="1" vertex="1">
                    <mxGeometry x="480" y="638" width="40" height="40" as="geometry"/>
                </mxCell>
                <mxCell id="118" value="11" style="rounded=0;whiteSpace=wrap;html=1;strokeWidth=2;" parent="1" vertex="1">
                    <mxGeometry x="520" y="638" width="40" height="40" as="geometry"/>
                </mxCell>
                <mxCell id="119" value="12" style="rounded=0;whiteSpace=wrap;html=1;strokeWidth=2;" parent="1" vertex="1">
                    <mxGeometry x="560" y="638" width="40" height="40" as="geometry"/>
                </mxCell>
                <mxCell id="120" value="13" style="rounded=0;whiteSpace=wrap;html=1;strokeWidth=2;" parent="1" vertex="1">
                    <mxGeometry x="600" y="638" width="40" height="40" as="geometry"/>
                </mxCell>
                <mxCell id="121" value="..." style="rounded=0;whiteSpace=wrap;html=1;strokeWidth=2;" parent="1" vertex="1">
                    <mxGeometry x="640" y="638" width="40" height="40" as="geometry"/>
                </mxCell>
                <mxCell id="122" value="99" style="rounded=0;whiteSpace=wrap;html=1;strokeWidth=2;" parent="1" vertex="1">
                    <mxGeometry x="680" y="638" width="40" height="40" as="geometry"/>
                </mxCell>
                <mxCell id="123" value="滑动窗口" style="text;html=1;align=center;verticalAlign=middle;whiteSpace=wrap;rounded=0;fontSize=10;" parent="1" vertex="1">
                    <mxGeometry x="244.16" y="598" width="190" height="30" as="geometry"/>
                </mxCell>
                <mxCell id="126" value="4" style="rounded=0;whiteSpace=wrap;html=1;fillColor=#fff2cc;strokeColor=default;strokeWidth=3;" parent="1" vertex="1">
                    <mxGeometry x="200" y="633" width="46.66666666666666" height="50" as="geometry"/>
                </mxCell>
                <mxCell id="127" value="5" style="rounded=0;whiteSpace=wrap;html=1;fillColor=#d5e8d4;strokeColor=default;strokeWidth=3;" parent="1" vertex="1">
                    <mxGeometry x="246.66666666666663" y="633" width="46.66666666666666" height="50" as="geometry"/>
                </mxCell>
                <mxCell id="128" value="6" style="rounded=0;whiteSpace=wrap;html=1;fillColor=#fff2cc;strokeColor=default;strokeWidth=3;" parent="1" vertex="1">
                    <mxGeometry x="293.3333333333333" y="633" width="46.66666666666666" height="50" as="geometry"/>
                </mxCell>
                <mxCell id="129" value="7" style="rounded=0;whiteSpace=wrap;html=1;strokeWidth=3;strokeColor=default;fillColor=#fff2cc;" parent="1" vertex="1">
                    <mxGeometry x="340" y="633" width="46.66666666666666" height="50" as="geometry"/>
                </mxCell>
                <mxCell id="130" value="8" style="rounded=0;whiteSpace=wrap;html=1;strokeWidth=3;fillColor=#d5e8d4;strokeColor=default;" parent="1" vertex="1">
                    <mxGeometry x="386.66666666666663" y="633" width="46.66666666666666" height="50" as="geometry"/>
                </mxCell>
                <mxCell id="131" value="9" style="rounded=0;whiteSpace=wrap;html=1;strokeWidth=3;fillColor=#fff2cc;strokeColor=default;" parent="1" vertex="1">
                    <mxGeometry x="433.33333333333326" y="633" width="46.66666666666666" height="50" as="geometry"/>
                </mxCell>
                <mxCell id="132" value="" style="shape=curlyBracket;whiteSpace=wrap;html=1;rounded=1;labelPosition=left;verticalLabelPosition=middle;align=right;verticalAlign=middle;rotation=-90;" parent="1" vertex="1">
                    <mxGeometry x="107.5" y="200" width="20" height="145" as="geometry"/>
                </mxCell>
                <mxCell id="133" value="滑动窗口前的数据都已处理完毕" style="text;html=1;align=center;verticalAlign=middle;resizable=0;points=[];autosize=1;strokeColor=none;fillColor=none;fontSize=10;" parent="1" vertex="1">
                    <mxGeometry x="30" y="288" width="160" height="30" as="geometry"/>
                </mxCell>
                <mxCell id="134" value="但是, 只要滑动窗口内的第一条数据没有处理完成, 滑动窗口就不会往右移动. 所以&lt;span style=&quot;color: rgb(0, 0, 0);&quot;&gt;即使&lt;/span&gt;现在有多余的线程, 这个线程也只能等待" style="text;html=1;align=center;verticalAlign=middle;resizable=0;points=[];autosize=1;strokeColor=none;fillColor=none;fontStyle=1" parent="1" vertex="1">
                    <mxGeometry x="22.08" y="996.75" width="690" height="30" as="geometry"/>
                </mxCell>
                <mxCell id="136" value="" style="rounded=1;whiteSpace=wrap;html=1;fillColor=default;strokeWidth=2;" parent="1" vertex="1">
                    <mxGeometry x="203.75" y="1051.75" width="280" height="100" as="geometry"/>
                </mxCell>
                <mxCell id="137" value="0" style="rounded=0;whiteSpace=wrap;html=1;fillColor=#d5e8d4;strokeColor=#82b366;strokeWidth=2;" parent="1" vertex="1">
                    <mxGeometry x="43.75" y="1091.75" width="40" height="40" as="geometry"/>
                </mxCell>
                <mxCell id="138" value="1" style="rounded=0;whiteSpace=wrap;html=1;fillColor=#d5e8d4;strokeColor=#82b366;strokeWidth=2;" parent="1" vertex="1">
                    <mxGeometry x="83.75" y="1091.75" width="40" height="40" as="geometry"/>
                </mxCell>
                <mxCell id="139" value="2" style="rounded=0;whiteSpace=wrap;html=1;fillColor=#d5e8d4;strokeColor=#82b366;strokeWidth=2;" parent="1" vertex="1">
                    <mxGeometry x="123.75" y="1091.75" width="40" height="40" as="geometry"/>
                </mxCell>
                <mxCell id="140" value="3" style="rounded=0;whiteSpace=wrap;html=1;fillColor=#d5e8d4;strokeColor=#82b366;strokeWidth=2;" parent="1" vertex="1">
                    <mxGeometry x="163.75" y="1091.75" width="40" height="40" as="geometry"/>
                </mxCell>
                <mxCell id="141" value="10" style="rounded=0;whiteSpace=wrap;html=1;strokeWidth=2;" parent="1" vertex="1">
                    <mxGeometry x="483.75" y="1091.75" width="40" height="40" as="geometry"/>
                </mxCell>
                <mxCell id="142" value="11" style="rounded=0;whiteSpace=wrap;html=1;strokeWidth=2;" parent="1" vertex="1">
                    <mxGeometry x="523.75" y="1091.75" width="40" height="40" as="geometry"/>
                </mxCell>
                <mxCell id="143" value="12" style="rounded=0;whiteSpace=wrap;html=1;strokeWidth=2;" parent="1" vertex="1">
                    <mxGeometry x="563.75" y="1091.75" width="40" height="40" as="geometry"/>
                </mxCell>
                <mxCell id="144" value="13" style="rounded=0;whiteSpace=wrap;html=1;strokeWidth=2;" parent="1" vertex="1">
                    <mxGeometry x="603.75" y="1091.75" width="40" height="40" as="geometry"/>
                </mxCell>
                <mxCell id="145" value="..." style="rounded=0;whiteSpace=wrap;html=1;strokeWidth=2;" parent="1" vertex="1">
                    <mxGeometry x="643.75" y="1091.75" width="40" height="40" as="geometry"/>
                </mxCell>
                <mxCell id="146" value="99" style="rounded=0;whiteSpace=wrap;html=1;strokeWidth=2;" parent="1" vertex="1">
                    <mxGeometry x="683.75" y="1091.75" width="40" height="40" as="geometry"/>
                </mxCell>
                <mxCell id="147" value="滑动窗口" style="text;html=1;align=center;verticalAlign=middle;whiteSpace=wrap;rounded=0;fontSize=10;" parent="1" vertex="1">
                    <mxGeometry x="248.75" y="1051.75" width="190" height="30" as="geometry"/>
                </mxCell>
                <mxCell id="148" value="" style="shape=curlyBracket;whiteSpace=wrap;html=1;rounded=1;labelPosition=left;verticalLabelPosition=middle;align=right;verticalAlign=middle;rotation=-90;" parent="1" vertex="1">
                    <mxGeometry x="335" y="1040.5" width="20" height="267.5" as="geometry"/>
                </mxCell>
                <mxCell id="149" value="只有&lt;b&gt;3个线程&lt;/b&gt;同时处理数据" style="text;html=1;align=center;verticalAlign=middle;resizable=0;points=[];autosize=1;strokeColor=none;fillColor=none;fontSize=10;" parent="1" vertex="1">
                    <mxGeometry x="278.75" y="1181.75" width="140" height="30" as="geometry"/>
                </mxCell>
                <mxCell id="150" value="4" style="rounded=0;whiteSpace=wrap;html=1;fillColor=#fff2cc;strokeColor=default;strokeWidth=3;" parent="1" vertex="1">
                    <mxGeometry x="203.75" y="1086.75" width="46.66666666666666" height="50" as="geometry"/>
                </mxCell>
                <mxCell id="151" value="5" style="rounded=0;whiteSpace=wrap;html=1;fillColor=#d5e8d4;strokeColor=default;strokeWidth=3;" parent="1" vertex="1">
                    <mxGeometry x="250.41666666666663" y="1086.75" width="46.66666666666666" height="50" as="geometry"/>
                </mxCell>
                <mxCell id="173" style="edgeStyle=none;html=1;exitX=0.5;exitY=1;exitDx=0;exitDy=0;dashed=1;dashPattern=8 8;" parent="1" source="152" target="174" edge="1">
                    <mxGeometry relative="1" as="geometry">
                        <mxPoint x="123.75" y="1191.75" as="targetPoint"/>
                    </mxGeometry>
                </mxCell>
                <mxCell id="152" value="6" style="rounded=0;whiteSpace=wrap;html=1;fillColor=#d5e8d4;strokeColor=default;strokeWidth=3;" parent="1" vertex="1">
                    <mxGeometry x="297.0833333333333" y="1086.75" width="46.66666666666666" height="50" as="geometry"/>
                </mxCell>
                <mxCell id="153" value="7" style="rounded=0;whiteSpace=wrap;html=1;strokeWidth=3;strokeColor=default;fillColor=#fff2cc;" parent="1" vertex="1">
                    <mxGeometry x="343.75" y="1086.75" width="46.66666666666666" height="50" as="geometry"/>
                </mxCell>
                <mxCell id="154" value="8" style="rounded=0;whiteSpace=wrap;html=1;strokeWidth=3;fillColor=#d5e8d4;strokeColor=default;" parent="1" vertex="1">
                    <mxGeometry x="390.41666666666663" y="1086.75" width="46.66666666666666" height="50" as="geometry"/>
                </mxCell>
                <mxCell id="155" value="9" style="rounded=0;whiteSpace=wrap;html=1;strokeWidth=3;fillColor=#fff2cc;strokeColor=default;" parent="1" vertex="1">
                    <mxGeometry x="437.08333333333326" y="1086.75" width="46.66666666666666" height="50" as="geometry"/>
                </mxCell>
                <mxCell id="158" value="当滑动窗口内的&lt;span&gt;&lt;font style=&quot;font-size: 15px; color: rgb(255, 51, 51);&quot;&gt;第一个&lt;/font&gt;&lt;/span&gt;数据处理完毕后. 滑动窗口&lt;font style=&quot;color: rgb(255, 51, 51);&quot;&gt;依次会往右移动&lt;/font&gt;, 直到滑动窗口内的第一个数据不是已处理完成" style="text;html=1;align=center;verticalAlign=middle;resizable=0;points=[];autosize=1;strokeColor=none;fillColor=none;fontStyle=1" parent="1" vertex="1">
                    <mxGeometry x="87.91999999999999" y="1460" width="620" height="30" as="geometry"/>
                </mxCell>
                <mxCell id="159" value="4" style="rounded=0;whiteSpace=wrap;html=1;fillColor=#d5e8d4;strokeColor=#82b366;strokeWidth=2;" parent="1" vertex="1">
                    <mxGeometry x="211.66000000000005" y="1330" width="40" height="40" as="geometry"/>
                </mxCell>
                <mxCell id="160" value="ok" style="text;html=1;align=center;verticalAlign=middle;resizable=0;points=[];autosize=1;strokeColor=none;fillColor=none;fontStyle=1" parent="1" vertex="1">
                    <mxGeometry x="244.99" y="1335" width="40" height="30" as="geometry"/>
                </mxCell>
                <mxCell id="162" value="6" style="rounded=0;whiteSpace=wrap;html=1;fillColor=#d5e8d4;strokeColor=#82b366;strokeWidth=2;" parent="1" vertex="1">
                    <mxGeometry x="209.99999999999997" y="870" width="40" height="40" as="geometry"/>
                </mxCell>
                <mxCell id="163" value="ok" style="text;html=1;align=center;verticalAlign=middle;resizable=0;points=[];autosize=1;strokeColor=none;fillColor=none;fontStyle=1" parent="1" vertex="1">
                    <mxGeometry x="239.99999999999997" y="875" width="40" height="30" as="geometry"/>
                </mxCell>
                <mxCell id="166" value="5" style="rounded=0;whiteSpace=wrap;html=1;fillColor=#d5e8d4;strokeColor=#82b366;strokeWidth=2;" parent="1" vertex="1">
                    <mxGeometry x="211.66" y="420" width="40" height="40" as="geometry"/>
                </mxCell>
                <mxCell id="167" value="ok" style="text;html=1;align=center;verticalAlign=middle;resizable=0;points=[];autosize=1;strokeColor=none;fillColor=none;fontStyle=1" parent="1" vertex="1">
                    <mxGeometry x="241.66" y="425" width="40" height="30" as="geometry"/>
                </mxCell>
                <mxCell id="168" value="" style="curved=1;endArrow=classic;html=1;entryX=0.5;entryY=1;entryDx=0;entryDy=0;exitX=0.5;exitY=1;exitDx=0;exitDy=0;dashed=1;dashPattern=8 8;" parent="1" source="127" target="131" edge="1">
                    <mxGeometry width="50" height="50" relative="1" as="geometry">
                        <mxPoint x="380" y="798" as="sourcePoint"/>
                        <mxPoint x="430" y="748" as="targetPoint"/>
                        <Array as="points">
                            <mxPoint x="280" y="708"/>
                            <mxPoint x="410" y="728"/>
                        </Array>
                    </mxGeometry>
                </mxCell>
                <mxCell id="169" value="空出的线程按顺序处理下一条数据" style="text;html=1;align=center;verticalAlign=middle;whiteSpace=wrap;rounded=0;fontSize=10;" parent="1" vertex="1">
                    <mxGeometry x="260" y="718" width="225.83" height="30" as="geometry"/>
                </mxCell>
                <mxCell id="171" value="" style="curved=1;endArrow=classic;html=1;exitX=0.5;exitY=1;exitDx=0;exitDy=0;dashed=1;dashPattern=8 8;" parent="1" edge="1">
                    <mxGeometry width="50" height="50" relative="1" as="geometry">
                        <mxPoint x="223.75" y="1622" as="sourcePoint"/>
                        <mxPoint x="483.75" y="1630" as="targetPoint"/>
                        <Array as="points">
                            <mxPoint x="263.75" y="1660"/>
                            <mxPoint x="433.75" y="1670"/>
                        </Array>
                    </mxGeometry>
                </mxCell>
                <mxCell id="174" value="这个数据处理完成后线程睡眠" style="text;html=1;align=center;verticalAlign=middle;whiteSpace=wrap;rounded=0;fontSize=10;" parent="1" vertex="1">
                    <mxGeometry x="83.75" y="1191.75" width="180" height="30" as="geometry"/>
                </mxCell>
                <mxCell id="175" value="" style="shape=singleArrow;direction=south;whiteSpace=wrap;html=1;" vertex="1" parent="1">
                    <mxGeometry x="251.65999999999997" y="800" width="120" height="162" as="geometry"/>
                </mxCell>
                <mxCell id="176" value="" style="shape=singleArrow;direction=south;whiteSpace=wrap;html=1;" vertex="1" parent="1">
                    <mxGeometry x="251.65999999999997" y="1260" width="120" height="162" as="geometry"/>
                </mxCell>
            </root>
        </mxGraphModel>
    </diagram>
</mxfile>